<svg xmlns="http://www.w3.org/2000/svg" xmlns:xlink="http://www.w3.org/1999/xlink" width="236.049" height="72.635" viewBox="0 0 236.049 72.635">
  <defs>
    <filter id="Path_670" x="210.07" y="43.689" width="25.979" height="28.774" filterUnits="userSpaceOnUse">
      <feOffset dy="3" input="SourceAlpha"/>
      <feGaussianBlur stdDeviation="3" result="blur"/>
      <feFlood flood-color="#131313" flood-opacity="0.161"/>
      <feComposite operator="in" in2="blur"/>
      <feComposite in="SourceGraphic"/>
    </filter>
    <filter id="Path_671" x="158.7" y="43.702" width="25.658" height="28.898" filterUnits="userSpaceOnUse">
      <feOffset dy="3" input="SourceAlpha"/>
      <feGaussianBlur stdDeviation="3" result="blur-2"/>
      <feFlood flood-color="#131313" flood-opacity="0.161"/>
      <feComposite operator="in" in2="blur-2"/>
      <feComposite in="SourceGraphic"/>
    </filter>
    <filter id="Path_672" x="143.177" y="43.688" width="26.944" height="28.771" filterUnits="userSpaceOnUse">
      <feOffset dy="3" input="SourceAlpha"/>
      <feGaussianBlur stdDeviation="3" result="blur-3"/>
      <feFlood flood-color="#131313" flood-opacity="0.161"/>
      <feComposite operator="in" in2="blur-3"/>
      <feComposite in="SourceGraphic"/>
    </filter>
    <filter id="Path_673" x="173.542" y="43.626" width="24.555" height="29.009" filterUnits="userSpaceOnUse">
      <feOffset dy="3" input="SourceAlpha"/>
      <feGaussianBlur stdDeviation="3" result="blur-4"/>
      <feFlood flood-color="#131313" flood-opacity="0.161"/>
      <feComposite operator="in" in2="blur-4"/>
      <feComposite in="SourceGraphic"/>
    </filter>
    <filter id="Path_674" x="186.491" y="43.707" width="25.741" height="28.741" filterUnits="userSpaceOnUse">
      <feOffset dy="3" input="SourceAlpha"/>
      <feGaussianBlur stdDeviation="3" result="blur-5"/>
      <feFlood flood-color="#131313" flood-opacity="0.161"/>
      <feComposite operator="in" in2="blur-5"/>
      <feComposite in="SourceGraphic"/>
    </filter>
    <filter id="Path_675" x="200.958" y="43.706" width="19.37" height="28.739" filterUnits="userSpaceOnUse">
      <feOffset dy="3" input="SourceAlpha"/>
      <feGaussianBlur stdDeviation="3" result="blur-6"/>
      <feFlood flood-color="#131313" flood-opacity="0.161"/>
      <feComposite operator="in" in2="blur-6"/>
      <feComposite in="SourceGraphic"/>
    </filter>
  </defs>
  <g id="Group_986" data-name="Group 986" transform="translate(-2887.809 151.547)">
    <path id="Union_17" data-name="Union 17" d="M8.307,60.533a8.7,8.7,0,0,1-3.741-.764A7.249,7.249,0,0,1,.541,55.3,9.613,9.613,0,0,1,0,51.943q.028-2.336.045-4.672C.054,38.131.082,32.4.1,22.288Q.1,18.23.1,14.172c0-1.529,0-3.151,0-4.877H.121q0-.877.009-1.754C.157,2.98,2.833.23,7.235.117c2.69-.07,5.381-.065,8.073-.061C17.906.06,20.5.064,23.1,0c2.822-.066,4.809,1.273,6.529,3.335.872,1.046,1.734,2.1,2.638,3.117A7.691,7.691,0,0,0,38.38,9.178c3.464-.009,6.929.042,10.394.094l2.748.04,12.16,0,.173,0a9.2,9.2,0,0,1,2.648.312,6.96,6.96,0,0,1,4.357,3.183,9.142,9.142,0,0,1,1.368,4.835c.011.312,0,.494,0,.494s-.029,17.77-.032,31.67q.021,1.02.046,2.041a8.736,8.736,0,0,1-.8,3.925,7.721,7.721,0,0,1-7.291,4.754c-.142,0-.284,0-.428,0-4.41-.118-8.822-.14-13.235-.13-4.709.012-9.421.057-14.129.058h-.349c-2.715,0-5.43-.016-8.145-.034-3.039-.018-6.079-.037-9.117-.032-3.3.008-6.6.044-9.893.141q-.185.005-.367.005Z" transform="translate(2887.809 -151.547)" fill="#2975eb"/>
    <path id="Path_664" data-name="Path 664" d="M256.24,172q-.723,2.537-1.445,5.077-2.287,8.086-4.556,16.179c-.179.643-.445.935-1.146.9-1.238-.051-2.479-.055-3.717,0a.944.944,0,0,1-1.1-.843q-1.806-6.843-3.646-13.677c-.655-2.444-1.321-4.886-2.2-7.355a7.027,7.027,0,0,0-.209.841c-.648,5.389-1.282,10.779-1.937,16.166-.071.579.163.738.678.728.648-.014,1.3.018,1.948-.009.6-.023.87.2.845.822-.032.825-.021,1.652,0,2.479.011.5-.147.777-.7.776q-4.781-.013-9.561,0c-.471,0-.71-.181-.7-.68.016-.885.018-1.771,0-2.656-.012-.535.227-.761.744-.731.03,0,.058,0,.089,0,1.884-.08,1.877-.08,2.095-1.937.682-5.8,1.355-11.6,2.072-17.4.089-.712-.143-.861-.772-.9-1.767-.128-1.766-.149-1.766-1.971,0-2.168,0-2.168,2.127-2.168q3.23,0,6.462,0c1.383,0,1.571.126,1.921,1.429,1.291,4.813,2.564,9.63,3.857,14.442.459,1.709.947,3.409,1.433,5.111a11.208,11.208,0,0,0,.437,1.032c.519-1.79.976-3.306,1.4-4.833q2.138-7.762,4.254-15.527c.406-1.48.638-1.647,2.145-1.656,2.449-.016,4.9-.021,7.346-.078.746-.018,1,.25.965.974-.042.8-.028,1.594-.005,2.389.016.567-.236.763-.785.811-1.829.163-1.858.184-1.663,1.989.63,5.865,1.291,11.729,1.918,17.594.057.531.275.74.779.7.03,0,.058,0,.089,0,2.164.076,2.173.078,2.162,2.231s.255,1.881-1.874,1.891c-2.685.012-5.371-.019-8.056.018-.765.011-1.077-.221-1.024-1.008s.025-1.594.009-2.389c-.011-.521.207-.761.737-.744s1.064-.028,1.592.011c.712.051.928-.221.846-.932-.306-2.667-.567-5.339-.841-8.01-.273-2.64-.54-5.283-.818-7.923-.041-.39-.133-.774-.2-1.16C256.385,172,256.313,172,256.24,172Z" transform="translate(2741.052 -300.587)" fill="#2975eb"/>
    <path id="Path_665" data-name="Path 665" d="M597.578,180.61c0,3.039.023,6.079-.016,9.118-.011.82.26,1.1,1.07,1.054,1.029-.057,2.065.005,3.1-.019.574-.012.8.225.783.788-.023.825-.021,1.652,0,2.479.014.554-.188.8-.772.793q-5.711-.021-11.42,0c-.515,0-.763-.181-.751-.721.019-.885.016-1.771,0-2.656-.009-.5.228-.7.7-.676.058,0,.119,0,.177,0,1.918-.057,1.918-.057,1.918-1.946,0-5.725-.014-11.451.016-17.176.005-.841-.229-1.139-1.1-1.114-1.851.05-1.652.207-1.665-1.635,0-.59.016-1.181,0-1.771-.018-.524.2-.761.73-.747,5.1.126,10.207.138,15.3.414a6.219,6.219,0,0,1,5.693,4.385,11.661,11.661,0,0,1,.244,7.392c-.958,3.395-3.425,5.058-6.784,5.449a40.814,40.814,0,0,1-4.418.046c-.568.005-.777-.266-.756-.823.03-.767.036-1.535,0-2.3-.028-.63.241-.827.839-.809a20.612,20.612,0,0,0,2.476-.037,3.943,3.943,0,0,0,3.891-4.027,13.3,13.3,0,0,0,0-1.5,3.882,3.882,0,0,0-3.907-4.08c-1.555-.119-3.124-.034-4.686-.058-.745-.012-.664.51-.664.978Q597.577,176,597.578,180.61Z" transform="translate(2447.253 -301.263)" fill="#2975eb"/>
    <path id="Path_666" data-name="Path 666" d="M453.311,219.532c-1.2,0-2.191-.032-3.18.011-.68.028-.972-.19-.931-.9.046-.823.032-1.652.005-2.477-.018-.551.161-.811.751-.809q4.912.021,9.825,0c.535,0,.735.22.721.744-.023.855-.019,1.711,0,2.566.011.491-.1.777-.685.761a2.652,2.652,0,0,0-2.667,2.01q-3.708,9.042-7.531,18.036a7.7,7.7,0,0,1-5.952,4.645,4.671,4.671,0,0,1-3.914-.946,1.633,1.633,0,0,1-.506-.944,9.615,9.615,0,0,1-.009-1.411c-.018-.712.292-1,1.018-.962.97.046,1.944.007,2.917.009a1.979,1.979,0,0,0,1.959-1.248c.012-.027.03-.051.044-.078,1.941-3.719,1.944-3.721.25-7.548-1.445-3.262-2.936-6.5-4.333-9.786a2.794,2.794,0,0,0-2.991-1.845c-.838.042-1.1-.28-1.043-1.075a19.757,19.757,0,0,0,.007-2.123c-.018-.551.175-.811.761-.808,2.3.016,4.6.019,6.9,0,.657-.007.829.312.769.877-.492,4.6,2.162,8.2,3.7,12.159l.333.06C450.757,225.537,451.995,222.63,453.311,219.532Z" transform="translate(2569.674 -341.563)" fill="#2975eb"/>
    <path id="Path_667" data-name="Path 667" d="M730.831,229.9a8.25,8.25,0,0,1-4.438,2.573c-2.3.388-4.5.262-6.249-1.544a5.959,5.959,0,0,1-.756-6.455,3.625,3.625,0,0,1,2.272-1.856c2.639-.616,5.288-1.185,7.95-1.686.719-.135,1.054-.328.993-1.1a21.875,21.875,0,0,1-.009-2.212c.011-.489-.206-.694-.687-.691-1.475.009-2.95,0-4.425,0-.473,0-.716.218-.687.7a1.478,1.478,0,0,1,0,.177c-.119,1.918-.119,1.918-2.09,1.918-2.454,0-3.43-1.371-2.669-3.77a3.561,3.561,0,0,1,1.819-2.18,12.706,12.706,0,0,1,10.872-.423,3.862,3.862,0,0,1,2.539,3.538c.165,2.173.156,4.358.211,6.54.03,1.179.044,2.359.051,3.538.005.834.414,1.28,1.245,1.263.73-.014,1,.3.951,1.018a14.283,14.283,0,0,0,0,1.946.919.919,0,0,1-.855,1.1,4.989,4.989,0,0,1-5.6-1.822C731.148,230.318,731.026,230.155,730.831,229.9Zm.021-6.14c-2.072.5-3.993.9-5.872,1.438a1.537,1.537,0,0,0-.956,1.737,1.973,1.973,0,0,0,.868,1.381,4.347,4.347,0,0,0,4.443-.468C730.743,226.9,730.665,225.427,730.853,223.757Z" transform="translate(2340.935 -339.087)" fill="#2975eb"/>
    <path id="Path_668" data-name="Path 668" d="M856.135,217.645c0,2.55,0,2.508-2.536,2.57a1.342,1.342,0,0,1-1.573-1.107c-.181-.59-.576-1.4-1.055-1.555a4.141,4.141,0,0,0-3.671.278,1.791,1.791,0,0,0,.547,3.039c1.268.549,2.609.926,3.91,1.4a18.655,18.655,0,0,1,2.042.839,5.509,5.509,0,0,1-.579,10.064,15.983,15.983,0,0,1-9.667.112c-.285-.076-.561-.186-.848-.25a1.523,1.523,0,0,1-1.321-1.619c-.037-1.208-.106-2.416-.195-3.621-.037-.506.147-.71.643-.691.383.016.767-.005,1.149,0,.558.014,1.263-.156,1.631.119.336.251.321.986.434,1.516a1.514,1.514,0,0,0,1.277,1.305,20.509,20.509,0,0,0,3.246.188c.774-.021,1.546-.259,1.72-1.218a2.225,2.225,0,0,0-1.194-2.194c-1.024-.445-2.1-.765-3.15-1.155a21.851,21.851,0,0,1-2.547-1,5.425,5.425,0,0,1-2.883-6.172,5.354,5.354,0,0,1,4.845-4.464,28.46,28.46,0,0,1,4.757.042c1.263.08,2.511.342,3.77.5a1.226,1.226,0,0,1,1.252,1.394C856.119,216.524,856.133,217.086,856.135,217.645Z" transform="translate(2240.195 -340.408)" fill="#2975eb"/>
    <path id="Path_669" data-name="Path 669" d="M959.227,217.853a13.194,13.194,0,0,1-.03,1.854c-.034.237-.359.5-.614.62-.216.1-.526-.005-.786.03-1.532.216-2.7-.053-2.979-1.893-.051-.336-.652-.751-1.059-.836a7.115,7.115,0,0,0-2.194-.067c-1.112.119-1.7.675-1.794,1.525a1.978,1.978,0,0,0,1.305,2.01c1.261.5,2.564.884,3.834,1.358a16.864,16.864,0,0,1,2.35,1.016,4.925,4.925,0,0,1,2.64,4.68,5.032,5.032,0,0,1-2.915,4.881,14.117,14.117,0,0,1-9.189.673c-3.853-.862-3.189-.726-3.407-3.875-.177-2.564-.184-2.564,2.35-2.561,1.229,0,1.245,0,1.341,1.254a1.635,1.635,0,0,0,1.479,1.712,17.462,17.462,0,0,0,3.675.028,1.249,1.249,0,0,0,1.006-1.967,3.667,3.667,0,0,0-1.415-1.459A20.469,20.469,0,0,0,950,225.819c-.668-.236-1.346-.448-1.99-.733a5.47,5.47,0,0,1-3.466-6.032,5.356,5.356,0,0,1,5.047-4.866,42.276,42.276,0,0,1,5.807.221c.88.055,1.753.23,2.631.338a1.181,1.181,0,0,1,1.2,1.341C959.213,216.674,959.227,217.264,959.227,217.853Z" transform="translate(2155.323 -340.57)" fill="#2975eb"/>
    <g transform="matrix(1, 0, 0, 1, 2887.81, -151.55)" filter="url(#Path_670)">
      <path id="Path_670-2" data-name="Path 670" d="M991.774,378.4c.016-.308.044-.616.044-.924q.005-3.36.005-6.722c0-.446-.048-.916.639-.912.666,0,.653.441.653.9,0,2.86.011,5.72-.012,8.578,0,.439.287,1.11-.473,1.218-.719.1-1.415.159-1.843-.751-.877-1.865-1.868-3.676-2.819-5.507-.384-.74-.79-1.47-1.185-2.2l-.232.057c-.021.3-.058.606-.06.907-.005,2.212,0,4.422-.007,6.634,0,.4.076.864-.563.894-.457.021-.745-.1-.744-.62,0-3.154-.009-6.31.02-9.464,0-.213.276-.6.439-.6.636-.034,1.346-.282,1.764.563,1.006,2.033,2.067,4.039,3.106,6.055.335.646.675,1.291,1.011,1.936C991.6,378.428,991.689,378.413,991.774,378.4Z" transform="translate(-766.11 -320.13)" fill="#2975eb"/>
    </g>
    <g transform="matrix(1, 0, 0, 1, 2887.81, -151.55)" filter="url(#Path_671)">
      <path id="Path_671-2" data-name="Path 671" d="M702.747,374.262c0,1.121.021,2.242-.005,3.363a2.861,2.861,0,0,1-2.591,3.065,7.482,7.482,0,0,1-2.2.043,2.969,2.969,0,0,1-2.846-3.228c-.026-2.242,0-4.484-.011-6.724,0-.489.048-.866.691-.884s.692.36.691.852q-.013,3.275,0,6.549c.007,1.619.714,2.258,2.467,2.26s2.431-.616,2.437-2.27q.011-3.23,0-6.46c0-.514.016-.947.723-.928.669.018.65.455.648.916C702.747,371.962,702.748,373.113,702.747,374.262Z" transform="translate(-527.4 -320.19)" fill="#2975eb"/>
    </g>
    <g transform="matrix(1, 0, 0, 1, 2887.81, -151.55)" filter="url(#Path_672)">
      <path id="Path_672-2" data-name="Path 672" d="M607.44,380.458c.39-1.215.747-2.382,1.139-3.538.707-2.091,1.463-4.165,2.137-6.267a1.067,1.067,0,0,1,1.226-.832,1.082,1.082,0,0,1,1.238.825c.97,2.964,2,5.909,2.984,8.87.112.335.5.823-.142,1.02a.859.859,0,0,1-1.156-.634c-.708-1.909-.731-1.9-2.81-1.9h-.177c-2.113,0-2.134-.009-2.879,1.936C608.724,380.661,608.237,380.633,607.44,380.458Zm4.643-9.175c-.09-.005-.182-.011-.273-.018l-1.757,5.46h3.777C613.224,374.83,612.654,373.057,612.083,371.283Z" transform="translate(-455.26 -320.13)" fill="#2975eb"/>
    </g>
    <g transform="matrix(1, 0, 0, 1, 2887.81, -151.55)" filter="url(#Path_673)">
      <path id="Path_673-2" data-name="Path 673" d="M779.08,378.938c1.192.094,2.272.232,3.356.248,1.153.018,1.59-.386,1.709-1.364.156-1.28-.154-1.785-1.3-2.111-.822-.234-1.649-.455-2.465-.7a1.69,1.69,0,0,1-1.263-1.454,8.229,8.229,0,0,1-.057-2.106,1.994,1.994,0,0,1,1.971-1.936,20.809,20.809,0,0,1,3.605.1c.23.019.583.467.6.733.034.568-.439.466-.834.432-.792-.066-1.587-.136-2.382-.133-1.1.005-1.555.367-1.656,1.2-.172,1.406.1,1.881,1.273,2.222.792.23,1.592.439,2.382.677a1.819,1.819,0,0,1,1.436,1.8,12.443,12.443,0,0,1-.1,2.194,1.829,1.829,0,0,1-1.459,1.5,8.333,8.333,0,0,1-4.456-.129C778.7,379.9,778.882,379.415,779.08,378.938Z" transform="translate(-596.36 -319.84)" fill="#2975eb"/>
    </g>
    <g transform="matrix(1, 0, 0, 1, 2887.81, -151.55)" filter="url(#Path_674)">
      <path id="Path_674-2" data-name="Path 674" d="M856.586,375.927c0,1.326-.012,2.655.005,3.981.007.506-.14.756-.7.758-.576,0-.687-.283-.685-.772.011-2.594-.021-5.19.019-7.785.011-.746-.235-1-.96-.937a7.159,7.159,0,0,1-1.675-.019c-.223-.034-.591-.4-.56-.545.057-.255.363-.643.57-.646q3.273-.072,6.545,0c.213,0,.416.406.623.622-.22.2-.42.538-.662.576a8.516,8.516,0,0,1-1.766.021c-.581-.035-.777.2-.767.77C856.605,373.273,856.586,374.6,856.586,375.927Z" transform="translate(-656.54 -320.22)" fill="#2975eb"/>
    </g>
    <g transform="matrix(1, 0, 0, 1, 2887.81, -151.55)" filter="url(#Path_675)">
      <path id="Path_675-2" data-name="Path 675" d="M935.089,375.334c0,1.445,0,2.89,0,4.335,0,.467.078.972-.664.988s-.7-.453-.7-.944q0-4.423,0-8.847c0-.494-.018-.962.7-.947s.661.521.662.992C935.092,372.385,935.089,373.859,935.089,375.334Z" transform="translate(-723.76 -320.21)" fill="#2975eb"/>
    </g>
  </g>
</svg>
