<svg xmlns="http://www.w3.org/2000/svg" width="72.246" height="60.534" viewBox="0 0 72.246 60.534">
  <path id="Union_33" data-name="Union 33" d="M8.307,60.533a8.7,8.7,0,0,1-3.741-.764A7.249,7.249,0,0,1,.541,55.3,9.613,9.613,0,0,1,0,51.943q.028-2.336.045-4.672C.054,38.131.082,32.4.1,22.288Q.1,18.23.1,14.172c0-1.529,0-3.151,0-4.877H.121q0-.877.009-1.754C.157,2.98,2.833.23,7.235.117c2.69-.07,5.381-.065,8.073-.061C17.906.06,20.5.064,23.1,0c2.822-.066,4.809,1.273,6.529,3.335.872,1.046,1.734,2.1,2.638,3.117A7.691,7.691,0,0,0,38.38,9.178c3.464-.009,6.929.042,10.394.094l2.748.04,12.16,0,.173,0a9.2,9.2,0,0,1,2.648.312,6.96,6.96,0,0,1,4.357,3.183,9.142,9.142,0,0,1,1.368,4.835c.011.312,0,.494,0,.494s-.029,17.77-.032,31.67q.021,1.02.046,2.041a8.736,8.736,0,0,1-.8,3.925,7.721,7.721,0,0,1-7.291,4.754c-.142,0-.284,0-.428,0-4.41-.118-8.822-.14-13.235-.13-4.709.012-9.421.057-14.129.058h-.349c-2.715,0-5.43-.016-8.145-.034-3.039-.018-6.079-.037-9.117-.032-3.3.008-6.6.044-9.893.141q-.185.005-.367.005Z" fill="#e8ecf1"/>
</svg>
