<svg xmlns="http://www.w3.org/2000/svg" width="87.68" height="111.34" viewBox="0 0 87.68 111.34">
  <g id="Group_981" data-name="Group 981" transform="translate(-2070.083 -2084.565)">
    <g id="Group_978" data-name="Group 978" transform="translate(-321 -18)">
      <g id="Group_977" data-name="Group 977" transform="translate(-0.918 -2.435)">
        <path id="Subtraction_21" data-name="Subtraction 21" d="M79.465,111.34H8.215a8.226,8.226,0,0,1-5.792-2.387A8.1,8.1,0,0,1,0,103.213V8.127A8.1,8.1,0,0,1,2.423,2.386,8.223,8.223,0,0,1,8.215,0H60.407V20.784a7.088,7.088,0,0,0,7.114,7.052H87.68v75.378a8.1,8.1,0,0,1-2.424,5.74A8.225,8.225,0,0,1,79.465,111.34Zm5.375-87.554H67.514a3.017,3.017,0,0,1-3.029-3V3L84.838,23.784Z" transform="translate(2392 2105)" fill="#fff"/>
      </g>
      <g id="Group_976" data-name="Group 976" transform="translate(-32 408)">
        <line id="Line_263" data-name="Line 263" y2="22.299" transform="translate(2482.766 1769.5)" fill="none" stroke="#fff" stroke-linecap="round" stroke-width="5"/>
        <line id="Line_264" data-name="Line 264" x1="22.532" transform="translate(2471.5 1779.906)" fill="none" stroke="#fff" stroke-linecap="round" stroke-width="5"/>
      </g>
    </g>
    <g id="Group_980" data-name="Group 980" transform="translate(-355.061 383.033)">
      <line id="Line_263-2" data-name="Line 263" y2="31.267" transform="translate(2487.297 1769.5)" fill="none" stroke="#c2c2c2" stroke-linecap="round" stroke-width="7"/>
      <line id="Line_264-2" data-name="Line 264" x1="31.593" transform="translate(2471.5 1784.091)" fill="none" stroke="#c2c2c2" stroke-linecap="round" stroke-width="7"/>
    </g>
  </g>
</svg>
