<svg id="Group_983" data-name="Group 983" xmlns="http://www.w3.org/2000/svg" width="83.844" height="106.47" viewBox="0 0 83.844 106.47">
  <path id="Path_597" data-name="Path 597" d="M255.92,31.724h16.543L253,11.844V28.852a2.867,2.867,0,0,0,.858,2.039,2.911,2.911,0,0,0,2.062.833Zm0,0" transform="translate(-191.335 -8.978)" fill="#484848"/>
  <path id="Path_598" data-name="Path 598" d="M64.584,26.617a6.829,6.829,0,0,1-4.818-1.968,6.724,6.724,0,0,1-2-4.775V0H7.855A7.853,7.853,0,0,0,0,7.772V98.7a7.853,7.853,0,0,0,7.856,7.772H75.988A7.853,7.853,0,0,0,83.843,98.7V26.617Zm-50.1,25.924A14.771,14.771,0,0,1,26.336,38.085a16.792,16.792,0,0,1,32.4,3.862,10.753,10.753,0,0,1,10.59,10.369,2.171,2.171,0,0,1,.031.368A12.218,12.218,0,0,1,57.138,64.85H26.7A12.218,12.218,0,0,1,14.487,52.685v-.144ZM13.117,75.5h33.59a1.936,1.936,0,1,1,0,3.872H13.117a1.936,1.936,0,1,1,0-3.872ZM69.224,92.435H13.117a1.936,1.936,0,1,1,0-3.872H69.224a1.936,1.936,0,1,1,0,3.872Zm0,0" transform="translate(0.001 0)" fill="#484848"/>
  <rect id="Rectangle_596" data-name="Rectangle 596" width="70.439" height="67.511" transform="translate(8.896 32.304)" fill="#484848"/>
  <rect id="Rectangle_597" data-name="Rectangle 597" width="34.854" height="21.536" transform="translate(20.595 18.753)" fill="#484848"/>
</svg>
