<svg xmlns="http://www.w3.org/2000/svg" width="119.246" height="99.534" viewBox="0 0 119.246 99.534">
  <g id="Group_971" data-name="Group 971" transform="translate(-2372.809 -1691.453)">
    <g id="Group_987" data-name="Group 987">
      <path id="Union_27" data-name="Union 27" d="M13.711,99.532a14.407,14.407,0,0,1-6.175-1.257A11.935,11.935,0,0,1,.893,90.931,15.751,15.751,0,0,1,0,85.408q.046-3.841.075-7.683C.088,62.7.135,53.28.159,36.648q0-6.673.012-13.346c0-2.515,0-5.182,0-8.019H.2Q.206,13.842.215,12.4C.259,4.9,4.676.378,11.942.192c4.44-.115,8.882-.108,13.325-.1C29.554.1,33.841.106,38.126,0,42.784-.105,46.065,2.1,48.9,5.487c1.439,1.72,2.861,3.457,4.355,5.126a12.715,12.715,0,0,0,10.09,4.478c5.717-.015,11.437.069,17.156.154q2.268.034,4.536.065l20.07.007.285-.006a15.243,15.243,0,0,1,4.37.513,11.483,11.483,0,0,1,7.192,5.234,14.99,14.99,0,0,1,2.257,7.95c.019.513,0,.812,0,.812s-.048,29.219-.053,52.074q.035,1.678.076,3.356a14.317,14.317,0,0,1-1.319,6.454,12.745,12.745,0,0,1-12.034,7.817c-.235.006-.469.005-.706,0-7.278-.194-14.561-.229-21.844-.214-7.772.019-15.549.094-23.321.095h-.577c-4.481,0-8.963-.027-13.444-.055-5.016-.03-10.033-.061-15.048-.052-5.445.012-10.889.073-16.328.232q-.306.009-.606.009Z" transform="translate(2372.809 1691.453)" fill="#fff"/>
      <g id="Group_972" data-name="Group 972" transform="translate(-23.258 -26.111)">
        <line id="Line_263" data-name="Line 263" y2="36.41" transform="translate(2489.895 1769.5)" fill="none" stroke="#c2c2c2" stroke-linecap="round" stroke-width="8"/>
        <line id="Line_264" data-name="Line 264" x1="36.79" transform="translate(2471.5 1786.491)" fill="none" stroke="#c2c2c2" stroke-linecap="round" stroke-width="8"/>
      </g>
    </g>
  </g>
</svg>
