<svg xmlns="http://www.w3.org/2000/svg" width="70" height="70" viewBox="0 0 70 70">
  <g id="Group_988" data-name="Group 988" transform="translate(15568 -17603)">
    <rect id="Rectangle_865" data-name="Rectangle 865" width="70" height="70" rx="11" transform="translate(-15568 17603)" fill="#2262c6"/>
    <g id="Group_966" data-name="Group 966" transform="translate(-3 4)">
      <g id="Path_1114" data-name="Path 1114" transform="translate(-15551 17613)" fill="#2262c6">
        <path d="M 21 40.75 C 18.33321952819824 40.75 15.74687004089355 40.22798919677734 13.31278991699219 39.19845962524414 C 10.96113014221191 38.20378875732422 8.848850250244141 36.77957153320313 7.034639835357666 34.96535873413086 C 5.22042989730835 33.15114974975586 3.796210050582886 31.03886985778809 2.801539897918701 28.68721008300781 C 1.772009968757629 26.25312995910645 1.25 23.66678047180176 1.25 21 C 1.25 18.33321952819824 1.772009968757629 15.74687004089355 2.801539897918701 13.31278991699219 C 3.796210050582886 10.96113014221191 5.22042989730835 8.848850250244141 7.034639835357666 7.034639835357666 C 8.848850250244141 5.22042989730835 10.96113014221191 3.796210050582886 13.31278991699219 2.801539897918701 C 15.74687004089355 1.772009968757629 18.33321952819824 1.25 21 1.25 C 23.66678047180176 1.25 26.25312995910645 1.772009968757629 28.68721008300781 2.801539897918701 C 31.03886985778809 3.796210050582886 33.15114974975586 5.22042989730835 34.96535873413086 7.034639835357666 C 36.77957153320313 8.848850250244141 38.20378875732422 10.96113014221191 39.19845962524414 13.31278991699219 C 40.22798919677734 15.74687004089355 40.75 18.33321952819824 40.75 21 C 40.75 23.66678047180176 40.22798919677734 26.25312995910645 39.19845962524414 28.68721008300781 C 38.20378875732422 31.03886985778809 36.77957153320313 33.15114974975586 34.96535873413086 34.96535873413086 C 33.15114974975586 36.77957153320313 31.03886985778809 38.20378875732422 28.68721008300781 39.19845962524414 C 26.25312995910645 40.22798919677734 23.66678047180176 40.75 21 40.75 Z" stroke="none"/>
        <path d="M 21 2.5 C 16.05846977233887 2.5 11.41271018981934 4.424339294433594 7.918521881103516 7.918521881103516 C 4.424339294433594 11.41271018981934 2.5 16.05846977233887 2.5 21 C 2.5 25.94153022766113 4.424339294433594 30.58728981018066 7.918521881103516 34.08148193359375 C 11.41271018981934 37.57566070556641 16.05846977233887 39.5 21 39.5 C 25.94153022766113 39.5 30.58728981018066 37.57566070556641 34.08148193359375 34.08148193359375 C 37.57566070556641 30.58728981018066 39.5 25.94153022766113 39.5 21 C 39.5 16.05846977233887 37.57566070556641 11.41271018981934 34.08148193359375 7.918521881103516 C 30.58728981018066 4.424339294433594 25.94153022766113 2.5 21 2.5 M 21 0 C 32.59798049926758 0 42 9.402019500732422 42 21 C 42 32.59798049926758 32.59798049926758 42 21 42 C 9.402019500732422 42 0 32.59798049926758 0 21 C 0 9.402019500732422 9.402019500732422 0 21 0 Z" stroke="none" fill="#e8ecf1"/>
      </g>
      <text id="i" transform="translate(-15533 17646)" fill="#e8ecf1" font-size="35" font-family="GloucesterMT-ExtraCondensed, Gloucester MT"><tspan x="0" y="0">i</tspan></text>
    </g>
  </g>
</svg>
